<svg width="450" height="255" viewBox="0 0 450 255" fill="none" xmlns="http://www.w3.org/2000/svg">
<path fill-rule="evenodd" clip-rule="evenodd" d="M448.559 209.652L0.9375 209.652L0.9375 210.16L448.559 210.16V209.652Z" fill="url(#paint0_linear_869_7391)" fill-opacity="0.3"/>
<path fill-rule="evenodd" clip-rule="evenodd" d="M244.373 0.196793L244.373 254.99L244.877 254.99L244.877 0.196793H244.373Z" fill="url(#paint1_linear_869_7391)" fill-opacity="0.3"/>
<path fill-rule="evenodd" clip-rule="evenodd" d="M448.559 157.289L0.9375 157.289L0.9375 157.797L448.559 157.797V157.289Z" fill="url(#paint2_linear_869_7391)" fill-opacity="0.3"/>
<path fill-rule="evenodd" clip-rule="evenodd" d="M193.326 0.196793L193.326 254.99L193.83 254.99L193.83 0.196793H193.326Z" fill="url(#paint3_linear_869_7391)" fill-opacity="0.3"/>
<path fill-rule="evenodd" clip-rule="evenodd" d="M448.559 0.196793L448.559 254.99L449.062 254.99L449.062 0.196793H448.559Z" fill="url(#paint4_linear_869_7391)" fill-opacity="0.3"/>
<path fill-rule="evenodd" clip-rule="evenodd" d="M448.559 104.924L0.9375 104.924L0.9375 105.433L448.559 105.433V104.924Z" fill="url(#paint5_linear_869_7391)" fill-opacity="0.3"/>
<path fill-rule="evenodd" clip-rule="evenodd" d="M142.28 0.196793L142.28 254.99L142.784 254.99L142.784 0.196793H142.28Z" fill="url(#paint6_linear_869_7391)" fill-opacity="0.3"/>
<path fill-rule="evenodd" clip-rule="evenodd" d="M397.512 0.196793L397.512 254.99L398.016 254.99L398.016 0.196793H397.512Z" fill="url(#paint7_linear_869_7391)" fill-opacity="0.3"/>
<path fill-rule="evenodd" clip-rule="evenodd" d="M448.559 52.5611L0.9375 52.5611V53.0695L448.559 53.0695V52.5611Z" fill="url(#paint8_linear_869_7391)" fill-opacity="0.3"/>
<path fill-rule="evenodd" clip-rule="evenodd" d="M91.2335 0.196793L91.2335 254.99L91.7372 254.99L91.7372 0.196793H91.2335Z" fill="url(#paint9_linear_869_7391)" fill-opacity="0.3"/>
<path fill-rule="evenodd" clip-rule="evenodd" d="M346.466 0.196793L346.466 254.99L346.97 254.99L346.97 0.196793H346.466Z" fill="url(#paint10_linear_869_7391)" fill-opacity="0.3"/>
<path fill-rule="evenodd" clip-rule="evenodd" d="M40.1874 0.196793L40.1874 254.99L40.6912 254.99L40.6911 0.196793H40.1874Z" fill="url(#paint11_linear_869_7391)" fill-opacity="0.3"/>
<path fill-rule="evenodd" clip-rule="evenodd" d="M295.419 0.196793L295.419 254.99L295.923 254.99L295.923 0.196793H295.419Z" fill="url(#paint12_linear_869_7391)" fill-opacity="0.3"/>
<defs>
<linearGradient id="paint0_linear_869_7391" x1="172.348" y1="254.99" x2="256.36" y2="18.4285" gradientUnits="userSpaceOnUse">
<stop stop-color="white"/>
<stop offset="1" stop-color="white" stop-opacity="0"/>
</linearGradient>
<linearGradient id="paint1_linear_869_7391" x1="172.348" y1="254.99" x2="256.36" y2="18.4285" gradientUnits="userSpaceOnUse">
<stop stop-color="white"/>
<stop offset="1" stop-color="white" stop-opacity="0"/>
</linearGradient>
<linearGradient id="paint2_linear_869_7391" x1="172.348" y1="254.99" x2="256.36" y2="18.4285" gradientUnits="userSpaceOnUse">
<stop stop-color="white"/>
<stop offset="1" stop-color="white" stop-opacity="0"/>
</linearGradient>
<linearGradient id="paint3_linear_869_7391" x1="172.348" y1="254.99" x2="256.36" y2="18.4285" gradientUnits="userSpaceOnUse">
<stop stop-color="white"/>
<stop offset="1" stop-color="white" stop-opacity="0"/>
</linearGradient>
<linearGradient id="paint4_linear_869_7391" x1="172.348" y1="254.99" x2="256.36" y2="18.4285" gradientUnits="userSpaceOnUse">
<stop stop-color="white"/>
<stop offset="1" stop-color="white" stop-opacity="0"/>
</linearGradient>
<linearGradient id="paint5_linear_869_7391" x1="172.348" y1="254.99" x2="256.36" y2="18.4285" gradientUnits="userSpaceOnUse">
<stop stop-color="white"/>
<stop offset="1" stop-color="white" stop-opacity="0"/>
</linearGradient>
<linearGradient id="paint6_linear_869_7391" x1="172.348" y1="254.99" x2="256.36" y2="18.4285" gradientUnits="userSpaceOnUse">
<stop stop-color="white"/>
<stop offset="1" stop-color="white" stop-opacity="0"/>
</linearGradient>
<linearGradient id="paint7_linear_869_7391" x1="172.348" y1="254.99" x2="256.36" y2="18.4285" gradientUnits="userSpaceOnUse">
<stop stop-color="white"/>
<stop offset="1" stop-color="white" stop-opacity="0"/>
</linearGradient>
<linearGradient id="paint8_linear_869_7391" x1="172.348" y1="254.99" x2="256.36" y2="18.4285" gradientUnits="userSpaceOnUse">
<stop stop-color="white"/>
<stop offset="1" stop-color="white" stop-opacity="0"/>
</linearGradient>
<linearGradient id="paint9_linear_869_7391" x1="172.348" y1="254.99" x2="256.36" y2="18.4285" gradientUnits="userSpaceOnUse">
<stop stop-color="white"/>
<stop offset="1" stop-color="white" stop-opacity="0"/>
</linearGradient>
<linearGradient id="paint10_linear_869_7391" x1="172.348" y1="254.99" x2="256.36" y2="18.4285" gradientUnits="userSpaceOnUse">
<stop stop-color="white"/>
<stop offset="1" stop-color="white" stop-opacity="0"/>
</linearGradient>
<linearGradient id="paint11_linear_869_7391" x1="172.348" y1="254.99" x2="256.36" y2="18.4285" gradientUnits="userSpaceOnUse">
<stop stop-color="white"/>
<stop offset="1" stop-color="white" stop-opacity="0"/>
</linearGradient>
<linearGradient id="paint12_linear_869_7391" x1="172.348" y1="254.99" x2="256.36" y2="18.4285" gradientUnits="userSpaceOnUse">
<stop stop-color="white"/>
<stop offset="1" stop-color="white" stop-opacity="0"/>
</linearGradient>
</defs>
</svg>
