<svg width="82" height="20" viewBox="0 0 82 20" fill="none" xmlns="http://www.w3.org/2000/svg">
<path d="M9.1206 12.0448H3.64295L2.70178 14.7178H0.461777L5.14884 1.6166H7.63354L12.3206 14.7178H10.0618L9.1206 12.0448ZM8.51825 10.2942L6.39119 4.21424L4.24531 10.2942H8.51825ZM13.6432 9.48483C13.6432 8.44326 13.8566 7.52091 14.2832 6.71777C14.7225 5.91464 15.3123 5.29346 16.0527 4.85424C16.8056 4.40248 17.6401 4.1766 18.5562 4.1766C19.2338 4.1766 19.8989 4.32718 20.5515 4.62836C21.2166 4.91699 21.7436 5.30601 22.1327 5.79542V0.788361H24.2974V14.7178H22.1327V13.1554C21.7813 13.6574 21.2919 14.0715 20.6644 14.3978C20.0495 14.724 19.3405 14.8872 18.5374 14.8872C17.6338 14.8872 16.8056 14.6613 16.0527 14.2095C15.3123 13.7452 14.7225 13.1052 14.2832 12.2895C13.8566 11.4613 13.6432 10.5264 13.6432 9.48483ZM22.1327 9.52248C22.1327 8.80718 21.9821 8.18601 21.6809 7.65895C21.3923 7.13189 21.0095 6.73032 20.5327 6.45424C20.0558 6.17816 19.5413 6.04013 18.9891 6.04013C18.437 6.04013 17.9225 6.17816 17.4456 6.45424C16.9687 6.71777 16.5797 7.11307 16.2785 7.64013C15.9899 8.15464 15.8456 8.76954 15.8456 9.48483C15.8456 10.2001 15.9899 10.8276 16.2785 11.3672C16.5797 11.9068 16.9687 12.3209 17.4456 12.6095C17.935 12.8856 18.4495 13.0237 18.9891 13.0237C19.5413 13.0237 20.0558 12.8856 20.5327 12.6095C21.0095 12.3335 21.3923 11.9319 21.6809 11.4048C21.9821 10.8652 22.1327 10.2378 22.1327 9.52248ZM31.1253 12.7978L34.0618 4.34601H36.3394L32.3865 14.7178H29.8265L25.8924 4.34601H28.1888L31.1253 12.7978ZM39.0533 2.97189C38.6642 2.97189 38.338 2.84013 38.0744 2.5766C37.8109 2.31307 37.6791 1.98679 37.6791 1.59777C37.6791 1.20875 37.8109 0.882478 38.0744 0.618949C38.338 0.355419 38.6642 0.223654 39.0533 0.223654C39.4297 0.223654 39.7497 0.355419 40.0133 0.618949C40.2768 0.882478 40.4085 1.20875 40.4085 1.59777C40.4085 1.98679 40.2768 2.31307 40.0133 2.5766C39.7497 2.84013 39.4297 2.97189 39.0533 2.97189ZM40.1074 4.34601V14.7178H37.9615V4.34601H40.1074ZM46.6894 14.8872C45.8737 14.8872 45.1396 14.7429 44.4871 14.4542C43.8471 14.1531 43.3388 13.7515 42.9624 13.2495C42.5859 12.735 42.3851 12.164 42.36 11.5366H44.5812C44.6188 11.9758 44.8259 12.346 45.2024 12.6472C45.5914 12.9358 46.0745 13.0801 46.6518 13.0801C47.2541 13.0801 47.7184 12.9672 48.0447 12.7413C48.3835 12.5029 48.553 12.2017 48.553 11.8378C48.553 11.4488 48.3647 11.1601 47.9882 10.9719C47.6243 10.7837 47.0408 10.5766 46.2377 10.3507C45.4596 10.1374 44.8259 9.93032 44.3365 9.72954C43.8471 9.52875 43.4204 9.2213 43.0565 8.80718C42.7051 8.39307 42.5294 7.84718 42.5294 7.16954C42.5294 6.61738 42.6926 6.11542 43.0188 5.66365C43.3451 5.19934 43.8094 4.83542 44.4118 4.57189C45.0267 4.30836 45.7294 4.1766 46.52 4.1766C47.6996 4.1766 48.6471 4.47777 49.3624 5.08013C50.0902 5.66993 50.4792 6.47934 50.5294 7.50836H48.3835C48.3459 7.04405 48.1577 6.67385 47.8188 6.39777C47.48 6.12169 47.022 5.98366 46.4447 5.98366C45.88 5.98366 45.4471 6.09032 45.1459 6.30365C44.8447 6.51699 44.6941 6.79934 44.6941 7.15071C44.6941 7.42679 44.7945 7.65895 44.9953 7.84718C45.1961 8.03542 45.4408 8.18601 45.7294 8.29895C46.0181 8.39934 46.4447 8.53111 47.0094 8.69424C47.7624 8.89503 48.3773 9.10209 48.8541 9.31542C49.3435 9.5162 49.7639 9.81738 50.1153 10.2189C50.4667 10.6205 50.6486 11.1539 50.6612 11.8189C50.6612 12.4088 50.4981 12.9358 50.1718 13.4001C49.8455 13.8644 49.3812 14.2284 48.7788 14.4919C48.189 14.7554 47.4926 14.8872 46.6894 14.8872ZM57.4787 14.8872C56.4999 14.8872 55.6152 14.6676 54.8246 14.2284C54.034 13.7766 53.4128 13.1491 52.961 12.346C52.5093 11.5303 52.2834 10.5891 52.2834 9.52248C52.2834 8.46836 52.5156 7.53346 52.9799 6.71777C53.4442 5.90209 54.0779 5.27464 54.881 4.83542C55.6842 4.3962 56.5814 4.1766 57.5728 4.1766C58.5642 4.1766 59.4614 4.3962 60.2646 4.83542C61.0677 5.27464 61.7014 5.90209 62.1658 6.71777C62.6301 7.53346 62.8622 8.46836 62.8622 9.52248C62.8622 10.5766 62.6238 11.5115 62.1469 12.3272C61.6701 13.1429 61.0175 13.7766 60.1893 14.2284C59.3736 14.6676 58.4701 14.8872 57.4787 14.8872ZM57.4787 13.0237C58.0308 13.0237 58.5454 12.8919 59.0222 12.6284C59.5116 12.3648 59.9069 11.9695 60.2081 11.4425C60.5093 10.9154 60.6599 10.2754 60.6599 9.52248C60.6599 8.76954 60.5156 8.13581 60.2269 7.6213C59.9383 7.09424 59.5556 6.69895 59.0787 6.43542C58.6018 6.17189 58.0873 6.04013 57.5352 6.04013C56.983 6.04013 56.4685 6.17189 55.9916 6.43542C55.5273 6.69895 55.1571 7.09424 54.881 7.6213C54.605 8.13581 54.4669 8.76954 54.4669 9.52248C54.4669 10.6393 54.7493 11.5052 55.314 12.1201C55.8912 12.7225 56.6128 13.0237 57.4787 13.0237ZM67.1294 5.85189C67.4432 5.32483 67.8573 4.91699 68.3718 4.62836C68.8988 4.32718 69.52 4.1766 70.2353 4.1766V6.39777H69.6894C68.8486 6.39777 68.2086 6.61111 67.7694 7.03777C67.3428 7.46444 67.1294 8.20483 67.1294 9.25895V14.7178H64.9835V4.34601H67.1294V5.85189ZM81.5443 4.34601L75.1819 19.5931H72.9607L75.069 14.5484L70.9843 4.34601H73.3749L76.2925 12.2519L79.3231 4.34601H81.5443Z" fill="#ABA4A1"/>
</svg>
