<svg width="68" height="68" viewBox="0 0 68 68" fill="none" xmlns="http://www.w3.org/2000/svg">
<rect x="0.115723" y="0.688477" width="67.0588" height="67.0588" rx="13.1765" fill="#EDEDED"/>
<g clip-path="url(#clip0_869_7557)">
<path d="M30.2876 27.9385H28.7192V29.5548H30.2876V27.9385Z" fill="#0B1451"/>
<path d="M28.3412 34.2169L21.8291 40.9284C19.8609 36.696 19.8663 31.7322 21.8291 27.5054L28.3412 34.2169Z" fill="#4C4C4C"/>
<path d="M35.4602 26.8792L28.3403 34.217L21.8281 27.5055C22.5472 25.9528 23.5293 24.4996 24.7783 23.2123C26.0273 21.925 27.4414 20.9088 28.948 20.1663L35.4602 26.8778V26.8792Z" fill="#0F0901"/>
<path d="M35.4602 41.5556L28.948 48.2672C27.4414 47.526 26.0273 46.5084 24.7783 45.2225C23.5293 43.9352 22.5472 42.482 21.8281 40.9293L28.3403 34.2178L35.4602 41.5556Z" fill="#0F0901"/>
<path d="M44.9164 30.7329C42.9723 32.1007 41.1761 32.1008 38.7759 30.7329L34.7256 26.4333L41.2377 19.8471C42.7444 20.5882 44.153 21.6004 45.4021 22.8876C46.6511 24.1748 47.6372 25.6323 48.3576 27.185L44.9151 30.7329C44.9151 30.7329 46.8605 29.3651 44.9164 30.7329Z" fill="#0F0901"/>
<path d="M45.6493 37.3809C43.7052 36.0129 41.909 36.0129 39.5088 37.3809L35.4585 41.5552L41.9706 48.2667C43.4773 47.5256 44.8859 46.5134 46.135 45.2262C47.384 43.9389 48.3701 42.4816 49.0905 40.9288L45.648 37.3809C45.648 37.3809 47.5934 38.7488 45.6493 37.3809Z" fill="#0F0901"/>
<path d="M41.973 20.1668L35.3244 27.032L28.9487 20.1668C33.0607 18.1439 37.8717 18.1439 41.973 20.1668Z" fill="#4C4C4C"/>
<path d="M41.973 48.2667C37.8717 50.2896 33.0594 50.2896 28.9487 48.2667L35.4609 41.5552L41.973 48.2667Z" fill="#4C4C4C"/>
</g>
<defs>
<clipPath id="clip0_869_7557">
<rect width="28.7395" height="31.1345" fill="white" transform="translate(20.356 18.6497)"/>
</clipPath>
</defs>
</svg>
