<svg width="171" height="36" viewBox="0 0 171 36" fill="none" xmlns="http://www.w3.org/2000/svg">
<path d="M25.163 3.72483V26.7178H20.5512V11.7625L14.3912 26.7178H10.8994L4.70648 11.7625V26.7178H0.0947188V3.72483H5.33237L12.6453 20.8213L19.9583 3.72483H25.163ZM46.6872 17.1978C46.6872 17.8566 46.6433 18.4495 46.5554 18.9766H33.2142C33.324 20.2942 33.7852 21.3264 34.5978 22.0731C35.4103 22.8197 36.4095 23.1931 37.5954 23.1931C39.3084 23.1931 40.5272 22.4574 41.2519 20.986H46.226C45.6989 22.7429 44.6888 24.1923 43.1954 25.3342C41.7021 26.4542 39.8684 27.0142 37.6942 27.0142C35.9374 27.0142 34.3562 26.6299 32.9507 25.8613C31.5672 25.0707 30.4801 23.9617 29.6895 22.5342C28.9209 21.1068 28.5366 19.4597 28.5366 17.5931C28.5366 15.7044 28.9209 14.0464 29.6895 12.6189C30.4582 11.1915 31.5342 10.0935 32.9178 9.32483C34.3013 8.5562 35.8935 8.17189 37.6942 8.17189C39.4291 8.17189 40.9774 8.54522 42.3389 9.29189C43.7225 10.0386 44.7876 11.1037 45.5342 12.4872C46.3029 13.8488 46.6872 15.4189 46.6872 17.1978ZM41.9107 15.8801C41.8888 14.6942 41.4605 13.7499 40.626 13.0472C39.7915 12.3225 38.7703 11.9601 37.5625 11.9601C36.4205 11.9601 35.4542 12.3115 34.6637 13.0142C33.895 13.695 33.4229 14.6503 33.2472 15.8801H41.9107ZM57.2016 8.17189C58.5632 8.17189 59.76 8.4464 60.7922 8.99542C61.8243 9.52248 62.6369 10.2142 63.2298 11.0707V8.46836H67.8745V26.8495C67.8745 28.5405 67.5341 30.0448 66.8534 31.3625C66.1726 32.7021 65.1514 33.7562 63.7898 34.5248C62.4283 35.3154 60.7812 35.7107 58.8487 35.7107C56.2573 35.7107 54.1271 35.1068 52.4581 33.899C50.811 32.6911 49.8777 31.044 49.6581 28.9578H54.2369C54.4785 29.7923 54.9945 30.4511 55.7851 30.9342C56.5977 31.4393 57.5749 31.6919 58.7169 31.6919C60.0565 31.6919 61.1436 31.2856 61.9781 30.4731C62.8126 29.6825 63.2298 28.4746 63.2298 26.8495V24.0166C62.6369 24.8731 61.8134 25.5868 60.7592 26.1578C59.7271 26.7288 58.5412 27.0142 57.2016 27.0142C55.6643 27.0142 54.2589 26.6189 52.9851 25.8284C51.7114 25.0378 50.7012 23.9288 49.9545 22.5013C49.2298 21.0519 48.8675 19.3939 48.8675 17.5272C48.8675 15.6825 49.2298 14.0464 49.9545 12.6189C50.7012 11.1915 51.7004 10.0935 52.9522 9.32483C54.2259 8.5562 55.6424 8.17189 57.2016 8.17189ZM63.2298 17.5931C63.2298 16.4731 63.0102 15.5178 62.571 14.7272C62.1318 13.9146 61.5389 13.2997 60.7922 12.8825C60.0455 12.4433 59.2439 12.2237 58.3875 12.2237C57.531 12.2237 56.7404 12.4323 56.0157 12.8495C55.291 13.2668 54.6981 13.8817 54.2369 14.6942C53.7977 15.4848 53.5781 16.4291 53.5781 17.5272C53.5781 18.6252 53.7977 19.5915 54.2369 20.426C54.6981 21.2386 55.291 21.8644 56.0157 22.3037C56.7624 22.7429 57.553 22.9625 58.3875 22.9625C59.2439 22.9625 60.0455 22.7539 60.7922 22.3366C61.5389 21.8974 62.1318 21.2825 62.571 20.4919C63.0102 19.6793 63.2298 18.7131 63.2298 17.5931ZM71.1928 17.5272C71.1928 15.6825 71.5552 14.0464 72.2799 12.6189C73.0266 11.1915 74.0258 10.0935 75.2776 9.32483C76.5513 8.5562 77.9678 8.17189 79.527 8.17189C80.8885 8.17189 82.0744 8.4464 83.0846 8.99542C84.1168 9.54444 84.9403 10.2362 85.5552 11.0707V8.46836H90.1999V26.7178H85.5552V24.0495C84.9623 24.906 84.1387 25.6197 83.0846 26.1907C82.0525 26.7397 80.8556 27.0142 79.494 27.0142C77.9568 27.0142 76.5513 26.6189 75.2776 25.8284C74.0258 25.0378 73.0266 23.9288 72.2799 22.5013C71.5552 21.0519 71.1928 19.3939 71.1928 17.5272ZM85.5552 17.5931C85.5552 16.4731 85.3356 15.5178 84.8964 14.7272C84.4572 13.9146 83.8642 13.2997 83.1176 12.8825C82.3709 12.4433 81.5693 12.2237 80.7128 12.2237C79.8564 12.2237 79.0658 12.4323 78.3411 12.8495C77.6164 13.2668 77.0234 13.8817 76.5623 14.6942C76.123 15.4848 75.9034 16.4291 75.9034 17.5272C75.9034 18.6252 76.123 19.5915 76.5623 20.426C77.0234 21.2386 77.6164 21.8644 78.3411 22.3037C79.0878 22.7429 79.8783 22.9625 80.7128 22.9625C81.5693 22.9625 82.3709 22.7539 83.1176 22.3366C83.8642 21.8974 84.4572 21.2825 84.8964 20.4919C85.3356 19.6793 85.5552 18.7131 85.5552 17.5931ZM99.3159 11.1037C99.9088 10.2691 100.721 9.57738 101.754 9.02836C102.808 8.45738 104.004 8.17189 105.344 8.17189C106.903 8.17189 108.309 8.5562 109.561 9.32483C110.834 10.0935 111.834 11.1915 112.558 12.6189C113.305 14.0244 113.678 15.6605 113.678 17.5272C113.678 19.3939 113.305 21.0519 112.558 22.5013C111.834 23.9288 110.834 25.0378 109.561 25.8284C108.309 26.6189 106.903 27.0142 105.344 27.0142C104.004 27.0142 102.819 26.7397 101.786 26.1907C100.776 25.6417 99.9527 24.9499 99.3159 24.1154V35.4142H94.7041V8.46836H99.3159V11.1037ZM108.968 17.5272C108.968 16.4291 108.737 15.4848 108.276 14.6942C107.837 13.8817 107.244 13.2668 106.497 12.8495C105.772 12.4323 104.982 12.2237 104.125 12.2237C103.291 12.2237 102.5 12.4433 101.754 12.8825C101.029 13.2997 100.436 13.9146 99.9747 14.7272C99.5355 15.5397 99.3159 16.495 99.3159 17.5931C99.3159 18.6911 99.5355 19.6464 99.9747 20.4589C100.436 21.2715 101.029 21.8974 101.754 22.3366C102.5 22.7539 103.291 22.9625 104.125 22.9625C104.982 22.9625 105.772 22.7429 106.497 22.3037C107.244 21.8644 107.837 21.2386 108.276 20.426C108.737 19.6135 108.968 18.6472 108.968 17.5272ZM125.133 27.0142C123.376 27.0142 121.795 26.6299 120.389 25.8613C118.984 25.0707 117.875 23.9617 117.062 22.5342C116.272 21.1068 115.877 19.4597 115.877 17.5931C115.877 15.7264 116.283 14.0793 117.095 12.6519C117.93 11.2244 119.061 10.1264 120.488 9.35777C121.916 8.56718 123.508 8.17189 125.265 8.17189C127.022 8.17189 128.614 8.56718 130.041 9.35777C131.469 10.1264 132.589 11.2244 133.401 12.6519C134.236 14.0793 134.653 15.7264 134.653 17.5931C134.653 19.4597 134.225 21.1068 133.368 22.5342C132.534 23.9617 131.392 25.0707 129.942 25.8613C128.515 26.6299 126.912 27.0142 125.133 27.0142ZM125.133 22.9954C125.968 22.9954 126.747 22.7978 127.472 22.4025C128.218 21.9852 128.811 21.3703 129.251 20.5578C129.69 19.7452 129.909 18.757 129.909 17.5931C129.909 15.8582 129.448 14.5295 128.526 13.6072C127.626 12.6629 126.517 12.1907 125.199 12.1907C123.881 12.1907 122.772 12.6629 121.872 13.6072C120.993 14.5295 120.554 15.8582 120.554 17.5931C120.554 19.328 120.982 20.6676 121.839 21.6119C122.717 22.5342 123.815 22.9954 125.133 22.9954ZM142.648 2.3413V26.7178H138.036V2.3413H142.648ZM149.543 6.29424C148.73 6.29424 148.05 6.04169 147.501 5.5366C146.974 5.00954 146.71 4.36169 146.71 3.59307C146.71 2.82444 146.974 2.18758 147.501 1.68248C148.05 1.15542 148.73 0.891889 149.543 0.891889C150.355 0.891889 151.025 1.15542 151.552 1.68248C152.101 2.18758 152.376 2.82444 152.376 3.59307C152.376 4.36169 152.101 5.00954 151.552 5.5366C151.025 6.04169 150.355 6.29424 149.543 6.29424ZM151.816 8.46836V26.7178H147.204V8.46836H151.816ZM163.356 27.0142C161.862 27.0142 160.523 26.7507 159.337 26.2237C158.151 25.6746 157.207 24.9389 156.504 24.0166C155.823 23.0942 155.45 22.0731 155.384 20.9531H160.029C160.117 21.6558 160.457 22.2378 161.05 22.6989C161.665 23.1601 162.422 23.3907 163.323 23.3907C164.201 23.3907 164.882 23.215 165.365 22.8637C165.87 22.5123 166.123 22.0621 166.123 21.5131C166.123 20.9201 165.815 20.4809 165.201 20.1954C164.608 19.888 163.652 19.5586 162.335 19.2072C160.973 18.8778 159.853 18.5374 158.975 18.186C158.118 17.8346 157.372 17.2966 156.735 16.5719C156.12 15.8472 155.812 14.8699 155.812 13.6401C155.812 12.6299 156.098 11.7076 156.669 10.8731C157.262 10.0386 158.096 9.37973 159.172 8.8966C160.27 8.41346 161.555 8.17189 163.026 8.17189C165.201 8.17189 166.935 8.72091 168.231 9.81895C169.527 10.895 170.241 12.3554 170.372 14.2001H165.958C165.892 13.4754 165.585 12.9044 165.036 12.4872C164.509 12.048 163.795 11.8284 162.895 11.8284C162.06 11.8284 161.412 11.9821 160.951 12.2895C160.512 12.597 160.292 13.0252 160.292 13.5742C160.292 14.1891 160.6 14.6613 161.215 14.9907C161.83 15.2982 162.785 15.6166 164.081 15.946C165.398 16.2754 166.485 16.6158 167.342 16.9672C168.198 17.3186 168.934 17.8676 169.549 18.6142C170.186 19.3389 170.515 20.3052 170.537 21.5131C170.537 22.5672 170.241 23.5115 169.648 24.346C169.077 25.1805 168.242 25.8393 167.144 26.3225C166.068 26.7837 164.805 27.0142 163.356 27.0142Z" fill="white"/>
</svg>
