<svg width="432" height="249" viewBox="0 0 432 249" fill="none" xmlns="http://www.w3.org/2000/svg">
<path fill-rule="evenodd" clip-rule="evenodd" d="M1.37848 39.3381L449 39.3382L449 38.8298L1.37848 38.8297L1.37848 39.3381Z" fill="url(#paint0_linear_869_7387)" fill-opacity="0.3"/>
<path fill-rule="evenodd" clip-rule="evenodd" d="M205.564 248.793L205.564 -6.00002L205.061 -6.00002L205.061 248.793L205.564 248.793Z" fill="url(#paint1_linear_869_7387)" fill-opacity="0.3"/>
<path fill-rule="evenodd" clip-rule="evenodd" d="M1.37847 91.7013L449 91.7013L449 91.1929L1.37847 91.1929L1.37847 91.7013Z" fill="url(#paint2_linear_869_7387)" fill-opacity="0.3"/>
<path fill-rule="evenodd" clip-rule="evenodd" d="M256.611 248.793L256.611 -6.00002L256.107 -6.00002L256.107 248.793L256.611 248.793Z" fill="url(#paint3_linear_869_7387)" fill-opacity="0.3"/>
<path fill-rule="evenodd" clip-rule="evenodd" d="M1.37876 248.793L1.37878 -6.00004L0.875 -6.00004L0.874978 248.793L1.37876 248.793Z" fill="url(#paint4_linear_869_7387)" fill-opacity="0.3"/>
<path fill-rule="evenodd" clip-rule="evenodd" d="M1.37847 144.066L449 144.066L449 143.557L1.37847 143.557L1.37847 144.066Z" fill="url(#paint5_linear_869_7387)" fill-opacity="0.3"/>
<path fill-rule="evenodd" clip-rule="evenodd" d="M307.657 248.793L307.657 -6.00001L307.154 -6.00001L307.153 248.793L307.657 248.793Z" fill="url(#paint6_linear_869_7387)" fill-opacity="0.3"/>
<path fill-rule="evenodd" clip-rule="evenodd" d="M52.4255 248.793L52.4255 -6.00003L51.9218 -6.00003L51.9218 248.793L52.4255 248.793Z" fill="url(#paint7_linear_869_7387)" fill-opacity="0.3"/>
<path fill-rule="evenodd" clip-rule="evenodd" d="M1.37846 196.429L449 196.429L449 195.92L1.37846 195.92L1.37846 196.429Z" fill="url(#paint8_linear_869_7387)" fill-opacity="0.3"/>
<path fill-rule="evenodd" clip-rule="evenodd" d="M358.704 248.793L358.704 -6.00001L358.2 -6.00001L358.2 248.793L358.704 248.793Z" fill="url(#paint9_linear_869_7387)" fill-opacity="0.3"/>
<path fill-rule="evenodd" clip-rule="evenodd" d="M103.472 248.793L103.472 -6.00003L102.968 -6.00003L102.968 248.793L103.472 248.793Z" fill="url(#paint10_linear_869_7387)" fill-opacity="0.3"/>
<path fill-rule="evenodd" clip-rule="evenodd" d="M409.75 248.793L409.75 -6L409.246 -6L409.246 248.793L409.75 248.793Z" fill="url(#paint11_linear_869_7387)" fill-opacity="0.3"/>
<path fill-rule="evenodd" clip-rule="evenodd" d="M154.518 248.793L154.518 -6.00003L154.015 -6.00003L154.015 248.793L154.518 248.793Z" fill="url(#paint12_linear_869_7387)" fill-opacity="0.3"/>
<defs>
<linearGradient id="paint0_linear_869_7387" x1="277.589" y1="-6.00001" x2="193.578" y2="230.561" gradientUnits="userSpaceOnUse">
<stop stop-color="white"/>
<stop offset="1" stop-color="white" stop-opacity="0"/>
</linearGradient>
<linearGradient id="paint1_linear_869_7387" x1="277.589" y1="-6.00001" x2="193.578" y2="230.561" gradientUnits="userSpaceOnUse">
<stop stop-color="white"/>
<stop offset="1" stop-color="white" stop-opacity="0"/>
</linearGradient>
<linearGradient id="paint2_linear_869_7387" x1="277.589" y1="-6.00001" x2="193.578" y2="230.561" gradientUnits="userSpaceOnUse">
<stop stop-color="white"/>
<stop offset="1" stop-color="white" stop-opacity="0"/>
</linearGradient>
<linearGradient id="paint3_linear_869_7387" x1="277.589" y1="-6.00001" x2="193.578" y2="230.561" gradientUnits="userSpaceOnUse">
<stop stop-color="white"/>
<stop offset="1" stop-color="white" stop-opacity="0"/>
</linearGradient>
<linearGradient id="paint4_linear_869_7387" x1="277.589" y1="-6.00001" x2="193.578" y2="230.561" gradientUnits="userSpaceOnUse">
<stop stop-color="white"/>
<stop offset="1" stop-color="white" stop-opacity="0"/>
</linearGradient>
<linearGradient id="paint5_linear_869_7387" x1="277.589" y1="-6.00001" x2="193.578" y2="230.561" gradientUnits="userSpaceOnUse">
<stop stop-color="white"/>
<stop offset="1" stop-color="white" stop-opacity="0"/>
</linearGradient>
<linearGradient id="paint6_linear_869_7387" x1="277.589" y1="-6.00001" x2="193.578" y2="230.561" gradientUnits="userSpaceOnUse">
<stop stop-color="white"/>
<stop offset="1" stop-color="white" stop-opacity="0"/>
</linearGradient>
<linearGradient id="paint7_linear_869_7387" x1="277.589" y1="-6.00001" x2="193.578" y2="230.561" gradientUnits="userSpaceOnUse">
<stop stop-color="white"/>
<stop offset="1" stop-color="white" stop-opacity="0"/>
</linearGradient>
<linearGradient id="paint8_linear_869_7387" x1="277.589" y1="-6.00001" x2="193.578" y2="230.561" gradientUnits="userSpaceOnUse">
<stop stop-color="white"/>
<stop offset="1" stop-color="white" stop-opacity="0"/>
</linearGradient>
<linearGradient id="paint9_linear_869_7387" x1="277.589" y1="-6.00001" x2="193.578" y2="230.561" gradientUnits="userSpaceOnUse">
<stop stop-color="white"/>
<stop offset="1" stop-color="white" stop-opacity="0"/>
</linearGradient>
<linearGradient id="paint10_linear_869_7387" x1="277.589" y1="-6.00001" x2="193.578" y2="230.561" gradientUnits="userSpaceOnUse">
<stop stop-color="white"/>
<stop offset="1" stop-color="white" stop-opacity="0"/>
</linearGradient>
<linearGradient id="paint11_linear_869_7387" x1="277.589" y1="-6.00001" x2="193.578" y2="230.561" gradientUnits="userSpaceOnUse">
<stop stop-color="white"/>
<stop offset="1" stop-color="white" stop-opacity="0"/>
</linearGradient>
<linearGradient id="paint12_linear_869_7387" x1="277.589" y1="-6.00001" x2="193.578" y2="230.561" gradientUnits="userSpaceOnUse">
<stop stop-color="white"/>
<stop offset="1" stop-color="white" stop-opacity="0"/>
</linearGradient>
</defs>
</svg>
